<mxfile host="app.diagrams.net" modified="2021-12-08T08:32:34.344Z" agent="5.0 (Windows NT 10.0; Win64; x64) AppleWebKit/537.36 (KHTML, like Gecko) Chrome/96.0.4664.45 Safari/537.36" etag="jBGdArdJgyp3fbf7hwyi" version="15.9.1" type="github" pages="2">
  <diagram id="w2JuXTSSUY6xB9AeeO29" name="Page-1">
    <mxGraphModel dx="1422" dy="786" grid="1" gridSize="10" guides="1" tooltips="1" connect="1" arrows="1" fold="1" page="1" pageScale="1" pageWidth="850" pageHeight="1100" math="0" shadow="0">
      <root>
        <mxCell id="0" />
        <mxCell id="1" parent="0" />
        <mxCell id="UEEyH95V2jWBOkGxnTtB-1" value="" style="image;html=1;image=img/lib/clip_art/computers/Server_Rack_128x128.png" vertex="1" parent="1">
          <mxGeometry x="130" y="150" width="80" height="80" as="geometry" />
        </mxCell>
        <mxCell id="UEEyH95V2jWBOkGxnTtB-2" value="" style="image;html=1;image=img/lib/clip_art/computers/Monitor_128x128.png" vertex="1" parent="1">
          <mxGeometry x="290" y="150" width="80" height="80" as="geometry" />
        </mxCell>
        <mxCell id="UEEyH95V2jWBOkGxnTtB-3" value="" style="image;html=1;image=img/lib/clip_art/computers/Monitor_128x128.png" vertex="1" parent="1">
          <mxGeometry x="470" y="150" width="80" height="80" as="geometry" />
        </mxCell>
        <mxCell id="UEEyH95V2jWBOkGxnTtB-4" value="" style="image;html=1;image=img/lib/clip_art/computers/Monitor_128x128.png" vertex="1" parent="1">
          <mxGeometry x="170" y="360" width="80" height="80" as="geometry" />
        </mxCell>
        <mxCell id="UEEyH95V2jWBOkGxnTtB-5" value="" style="image;html=1;image=img/lib/clip_art/computers/Printer_128x128.png" vertex="1" parent="1">
          <mxGeometry x="370" y="360" width="80" height="80" as="geometry" />
        </mxCell>
        <mxCell id="UEEyH95V2jWBOkGxnTtB-6" value="" style="shape=image;html=1;verticalAlign=top;verticalLabelPosition=bottom;labelBackgroundColor=#ffffff;imageAspect=0;aspect=fixed;image=https://cdn0.iconfinder.com/data/icons/multimedia_iconset/128/audio_speaker.png" vertex="1" parent="1">
          <mxGeometry x="530" y="350" width="100" height="100" as="geometry" />
        </mxCell>
        <mxCell id="UEEyH95V2jWBOkGxnTtB-7" value="" style="endArrow=none;html=1;rounded=1;endSize=12;startSize=14;strokeWidth=4;" edge="1" parent="1">
          <mxGeometry width="50" height="50" relative="1" as="geometry">
            <mxPoint x="80" y="290" as="sourcePoint" />
            <mxPoint x="700" y="290" as="targetPoint" />
          </mxGeometry>
        </mxCell>
        <mxCell id="UEEyH95V2jWBOkGxnTtB-13" value="" style="line;strokeWidth=2;direction=south;html=1;" vertex="1" parent="1">
          <mxGeometry x="160" y="230" width="10" height="60" as="geometry" />
        </mxCell>
        <mxCell id="UEEyH95V2jWBOkGxnTtB-14" value="" style="line;strokeWidth=2;direction=south;html=1;" vertex="1" parent="1">
          <mxGeometry x="325" y="230" width="10" height="60" as="geometry" />
        </mxCell>
        <mxCell id="UEEyH95V2jWBOkGxnTtB-15" value="" style="line;strokeWidth=2;direction=south;html=1;" vertex="1" parent="1">
          <mxGeometry x="505" y="230" width="10" height="60" as="geometry" />
        </mxCell>
        <mxCell id="UEEyH95V2jWBOkGxnTtB-16" value="" style="line;strokeWidth=2;direction=south;html=1;" vertex="1" parent="1">
          <mxGeometry x="200" y="290" width="10" height="70" as="geometry" />
        </mxCell>
        <mxCell id="UEEyH95V2jWBOkGxnTtB-17" value="" style="line;strokeWidth=2;direction=south;html=1;" vertex="1" parent="1">
          <mxGeometry x="390" y="290" width="10" height="70" as="geometry" />
        </mxCell>
        <mxCell id="UEEyH95V2jWBOkGxnTtB-18" value="" style="line;strokeWidth=2;direction=south;html=1;" vertex="1" parent="1">
          <mxGeometry x="575" y="290" width="10" height="70" as="geometry" />
        </mxCell>
        <mxCell id="UEEyH95V2jWBOkGxnTtB-19" value="&lt;font style=&quot;font-size: 31px&quot;&gt;Bus Network&lt;/font&gt;" style="text;html=1;strokeColor=none;fillColor=none;align=center;verticalAlign=middle;whiteSpace=wrap;rounded=0;" vertex="1" parent="1">
          <mxGeometry x="280" y="20" width="270" height="30" as="geometry" />
        </mxCell>
      </root>
    </mxGraphModel>
  </diagram>
  <diagram id="73rrdcqqspZxT_7j_5g4" name="Page-2">
    <mxGraphModel dx="1422" dy="786" grid="1" gridSize="10" guides="1" tooltips="1" connect="1" arrows="1" fold="1" page="1" pageScale="1" pageWidth="850" pageHeight="1100" math="0" shadow="0">
      <root>
        <mxCell id="YqUVl3o0K5DbffczWK12-0" />
        <mxCell id="YqUVl3o0K5DbffczWK12-1" parent="YqUVl3o0K5DbffczWK12-0" />
        <mxCell id="YqUVl3o0K5DbffczWK12-2" value="" style="ellipse;whiteSpace=wrap;html=1;fontSize=31;fillColor=none;" vertex="1" parent="YqUVl3o0K5DbffczWK12-1">
          <mxGeometry x="135" y="110" width="580" height="540" as="geometry" />
        </mxCell>
        <mxCell id="YqUVl3o0K5DbffczWK12-3" value="" style="image;html=1;image=img/lib/clip_art/computers/Server_Rack_128x128.png;fontSize=31;fillColor=none;" vertex="1" parent="YqUVl3o0K5DbffczWK12-1">
          <mxGeometry x="350" y="50" width="125" height="130" as="geometry" />
        </mxCell>
        <mxCell id="YqUVl3o0K5DbffczWK12-4" value="" style="shape=mxgraph.cisco.computers_and_peripherals.pc;html=1;pointerEvents=1;dashed=0;fillColor=#036897;strokeColor=#ffffff;strokeWidth=2;verticalLabelPosition=bottom;verticalAlign=top;align=center;outlineConnect=0;fontSize=31;" vertex="1" parent="YqUVl3o0K5DbffczWK12-1">
          <mxGeometry x="640" y="330" width="135" height="120" as="geometry" />
        </mxCell>
        <mxCell id="YqUVl3o0K5DbffczWK12-5" value="" style="shape=mxgraph.cisco.computers_and_peripherals.pc;html=1;pointerEvents=1;dashed=0;fillColor=#036897;strokeColor=#ffffff;strokeWidth=2;verticalLabelPosition=bottom;verticalAlign=top;align=center;outlineConnect=0;fontSize=31;" vertex="1" parent="YqUVl3o0K5DbffczWK12-1">
          <mxGeometry x="100" y="180" width="135" height="120" as="geometry" />
        </mxCell>
        <mxCell id="YqUVl3o0K5DbffczWK12-6" value="" style="verticalLabelPosition=bottom;sketch=0;aspect=fixed;html=1;verticalAlign=top;strokeColor=none;align=center;outlineConnect=0;shape=mxgraph.citrix.laptop_2;fontSize=31;fillColor=none;" vertex="1" parent="YqUVl3o0K5DbffczWK12-1">
          <mxGeometry x="90" y="420" width="116" height="86.5" as="geometry" />
        </mxCell>
        <mxCell id="YqUVl3o0K5DbffczWK12-7" value="" style="verticalLabelPosition=bottom;sketch=0;aspect=fixed;html=1;verticalAlign=top;strokeColor=none;align=center;outlineConnect=0;shape=mxgraph.citrix.laptop_2;fontSize=31;fillColor=none;" vertex="1" parent="YqUVl3o0K5DbffczWK12-1">
          <mxGeometry x="590" y="180" width="116" height="86.5" as="geometry" />
        </mxCell>
        <mxCell id="YqUVl3o0K5DbffczWK12-8" value="" style="image;html=1;image=img/lib/clip_art/computers/Printer_128x128.png;fontSize=31;fillColor=none;" vertex="1" parent="YqUVl3o0K5DbffczWK12-1">
          <mxGeometry x="370" y="580" width="140" height="120" as="geometry" />
        </mxCell>
        <mxCell id="YqUVl3o0K5DbffczWK12-10" value="Ring Network" style="text;html=1;strokeColor=none;fillColor=none;align=center;verticalAlign=middle;whiteSpace=wrap;rounded=0;fontSize=31;" vertex="1" parent="YqUVl3o0K5DbffczWK12-1">
          <mxGeometry x="310" y="350" width="260" height="30" as="geometry" />
        </mxCell>
      </root>
    </mxGraphModel>
  </diagram>
</mxfile>
